<?xml version="1.0" encoding="UTF-8"?>
<svg xmlns="http://www.w3.org/2000/svg" xmlns:xlink="http://www.w3.org/1999/xlink" width="305.203" height="167.719" viewBox="0 0 305.203 167.719">
<defs>
<clipPath id="clip-0">
<path clip-rule="nonzero" d="M 0 131 L 27 131 L 27 167.359375 L 0 167.359375 Z M 0 131 "/>
</clipPath>
<clipPath id="clip-1">
<path clip-rule="nonzero" d="M 113 131 L 140 131 L 140 167.359375 L 113 167.359375 Z M 113 131 "/>
</clipPath>
<clipPath id="clip-2">
<path clip-rule="nonzero" d="M 246 53 L 304.40625 53 L 304.40625 115 L 246 115 Z M 246 53 "/>
</clipPath>
<clipPath id="clip-3">
<path clip-rule="nonzero" d="M 25 0.078125 L 50 0.078125 L 50 36 L 25 36 Z M 25 0.078125 "/>
</clipPath>
</defs>
<g clip-path="url(#clip-0)">
<path fill-rule="nonzero" fill="currentColor"  d="M 20.289062 144.410156 C 20.289062 146.6875 19.625 148.457031 18.300781 149.714844 C 16.972656 150.972656 15.324219 151.597656 13.355469 151.597656 C 11.382812 151.597656 9.734375 150.972656 8.410156 149.714844 C 7.085938 148.457031 6.421875 146.6875 6.421875 144.410156 L 6.421875 143.902344 C 6.421875 141.589844 7.085938 139.816406 8.410156 138.574219 C 9.734375 137.335938 11.382812 136.714844 13.355469 136.714844 C 15.359375 136.714844 17.015625 137.335938 18.324219 138.574219 C 19.632812 139.816406 20.289062 141.589844 20.289062 143.902344 Z M 20.289062 134.878906 L 19.371094 134.878906 C 18.824219 133.996094 17.957031 133.144531 16.769531 132.332031 C 15.582031 131.515625 13.832031 131.109375 11.519531 131.109375 C 9.445312 131.109375 7.535156 131.609375 5.785156 132.613281 C 4.035156 133.613281 2.632812 135.058594 1.578125 136.945312 C 0.527344 138.828125 0 141.097656 0 143.75 L 0 144.566406 C 0 147.214844 0.527344 149.484375 1.578125 151.371094 C 2.632812 153.253906 4.035156 154.699219 5.785156 155.703125 C 7.535156 156.703125 9.445312 157.207031 11.519531 157.207031 C 13.082031 157.207031 14.375 157.019531 15.394531 156.644531 C 16.414062 156.273438 17.230469 155.804688 17.839844 155.242188 C 18.453125 154.683594 18.925781 154.128906 19.265625 153.589844 L 20.183594 153.589844 L 20.183594 160.164062 C 20.183594 161.183594 19.710938 161.691406 18.757812 161.691406 L 4.078125 161.691406 L 4.078125 167.300781 L 21 167.300781 C 22.699219 167.300781 24.058594 166.78125 25.078125 165.746094 C 26.097656 164.707031 26.609375 163.324219 26.609375 161.589844 L 26.609375 131.820312 L 20.289062 131.820312 Z M 20.289062 134.878906 "/>
</g>
<path fill-rule="nonzero" fill="currentColor"  d="M 41.4375 132.433594 C 40.550781 132.914062 39.921875 133.683594 39.546875 134.738281 L 38.675781 134.738281 L 38.675781 131.820312 L 32.890625 131.820312 L 32.890625 157.105469 L 38.777344 157.105469 L 38.777344 142.46875 C 38.777344 140.589844 39.304688 139.199219 40.363281 138.296875 C 41.421875 137.390625 42.804688 136.941406 44.511719 136.941406 L 47.683594 136.941406 L 47.683594 131.71875 L 44.613281 131.71875 C 43.382812 131.71875 42.324219 131.957031 41.4375 132.433594 "/>
<path fill-rule="nonzero" fill="currentColor"  d="M 71.738281 144.695312 C 71.738281 147.328125 71.011719 149.386719 69.558594 150.875 C 68.105469 152.359375 66.214844 153.105469 63.890625 153.105469 C 61.601562 153.105469 59.730469 152.359375 58.277344 150.875 C 56.824219 149.386719 56.097656 147.328125 56.097656 144.695312 L 56.097656 144.234375 C 56.097656 141.601562 56.824219 139.539062 58.277344 138.054688 C 59.730469 136.566406 61.601562 135.820312 63.890625 135.820312 C 66.25 135.820312 68.148438 136.566406 69.585938 138.054688 C 71.019531 139.539062 71.738281 141.601562 71.738281 144.234375 Z M 70.660156 132.691406 C 68.679688 131.632812 66.421875 131.105469 63.890625 131.105469 C 61.359375 131.105469 59.113281 131.632812 57.148438 132.691406 C 55.179688 133.753906 53.636719 135.25 52.507812 137.179688 C 51.378906 139.113281 50.8125 141.410156 50.8125 144.078125 L 50.8125 144.847656 C 50.8125 147.515625 51.378906 149.820312 52.507812 151.769531 C 53.636719 153.71875 55.179688 155.214844 57.148438 156.257812 C 59.113281 157.300781 61.359375 157.820312 63.890625 157.820312 C 66.421875 157.820312 68.679688 157.300781 70.660156 156.257812 C 72.644531 155.214844 74.199219 153.71875 75.328125 151.769531 C 76.453125 149.820312 77.019531 147.515625 77.019531 144.847656 L 77.019531 144.078125 C 77.019531 141.410156 76.453125 139.113281 75.328125 137.179688 C 74.199219 135.25 72.644531 133.753906 70.660156 132.691406 "/>
<path fill-rule="nonzero" fill="currentColor"  d="M 101.976562 144.539062 C 101.976562 147.675781 101.203125 150.039062 99.652344 151.625 C 98.101562 153.210938 96.117188 154.003906 93.707031 154.003906 C 91.566406 154.003906 89.871094 153.433594 88.613281 152.296875 C 87.355469 151.160156 86.726562 149.332031 86.726562 146.816406 L 86.726562 131.820312 L 82.640625 131.820312 L 82.640625 147.125 C 82.640625 149.367188 83.082031 151.269531 83.960938 152.839844 C 84.839844 154.40625 86.046875 155.589844 87.578125 156.382812 C 89.113281 157.171875 90.792969 157.570312 92.621094 157.570312 C 95.203125 157.570312 97.171875 157.078125 98.515625 156.09375 C 99.859375 155.113281 100.804688 154.019531 101.359375 152.8125 L 102.082031 152.8125 L 102.082031 157.105469 L 106.0625 157.105469 L 106.0625 131.820312 L 101.976562 131.820312 Z M 101.976562 144.539062 "/>
<g clip-path="url(#clip-1)">
<path fill-rule="nonzero" fill="currentColor"  d="M 136.320312 144.671875 C 136.320312 147.898438 135.425781 150.429688 133.640625 152.265625 C 131.855469 154.105469 129.523438 155.023438 126.644531 155.023438 C 123.800781 155.023438 121.476562 154.105469 119.671875 152.265625 C 117.871094 150.429688 116.964844 147.898438 116.964844 144.671875 L 116.964844 144.253906 C 116.964844 141.03125 117.871094 138.5 119.671875 136.660156 C 121.476562 134.820312 123.800781 133.902344 126.644531 133.902344 C 129.523438 133.902344 131.855469 134.820312 133.640625 136.660156 C 135.425781 138.5 136.320312 141.03125 136.320312 144.253906 Z M 133.511719 132.679688 C 131.671875 131.621094 129.625 131.09375 127.371094 131.09375 C 124.597656 131.09375 122.4375 131.640625 120.894531 132.730469 C 119.351562 133.824219 118.214844 135.0625 117.488281 136.453125 L 116.863281 136.453125 L 116.863281 131.820312 L 113.847656 131.820312 L 113.847656 167.507812 L 116.964844 167.507812 L 116.964844 152.683594 L 117.589844 152.683594 C 118.042969 153.515625 118.675781 154.332031 119.488281 155.125 C 120.304688 155.925781 121.363281 156.574219 122.664062 157.078125 C 123.964844 157.582031 125.535156 157.832031 127.371094 157.832031 C 129.660156 157.832031 131.722656 157.304688 133.5625 156.246094 C 135.398438 155.1875 136.855469 153.679688 137.933594 151.71875 C 139.007812 149.761719 139.542969 147.445312 139.542969 144.777344 L 139.542969 144.152344 C 139.542969 141.445312 139 139.121094 137.90625 137.179688 C 136.8125 135.238281 135.347656 133.738281 133.511719 132.679688 "/>
</g>
<path fill-rule="nonzero" fill="currentColor"  d="M 39.792969 80.144531 C 36.28125 78.871094 32.359375 77.847656 28.035156 77.074219 L 24.792969 76.496094 C 22.164062 76.03125 20.082031 75.355469 18.535156 74.46875 C 16.988281 73.582031 16.21875 72.207031 16.21875 70.355469 C 16.21875 68.65625 16.953125 67.324219 18.421875 66.355469 C 19.886719 65.394531 22.011719 64.910156 24.792969 64.910156 C 27.574219 64.910156 29.90625 65.53125 31.800781 66.761719 C 33.691406 68 34.945312 70.085938 35.566406 73.019531 L 49.121094 68.847656 C 47.804688 64.214844 45.027344 60.46875 40.78125 57.609375 C 36.53125 54.753906 31.203125 53.324219 24.792969 53.324219 C 17.996094 53.324219 12.511719 54.851562 8.339844 57.902344 C 4.171875 60.953125 2.085938 65.335938 2.085938 71.050781 C 2.085938 74.835938 3.089844 77.925781 5.097656 80.316406 C 7.105469 82.714844 9.769531 84.585938 13.089844 85.9375 C 16.410156 87.289062 20.082031 88.351562 24.097656 89.121094 L 27.339844 89.703125 C 30.738281 90.320312 33.207031 91.113281 34.753906 92.078125 C 36.300781 93.042969 37.070312 94.414062 37.070312 96.1875 C 37.070312 97.964844 36.261719 99.453125 34.640625 100.648438 C 33.019531 101.847656 30.507812 102.445312 27.109375 102.445312 C 24.867188 102.445312 22.804688 102.117188 20.910156 101.460938 C 19.019531 100.804688 17.4375 99.703125 16.160156 98.160156 C 14.886719 96.613281 13.976562 94.492188 13.4375 91.789062 L 0 95.261719 C 1.003906 101.285156 3.898438 105.917969 8.691406 109.164062 C 13.476562 112.40625 19.617188 114.03125 27.109375 114.03125 C 34.445312 114.03125 40.296875 112.390625 44.660156 109.105469 C 49.023438 105.824219 51.207031 101.171875 51.207031 95.148438 C 51.207031 91.132812 50.183594 87.945312 48.136719 85.589844 C 46.089844 83.234375 43.308594 81.417969 39.792969 80.144531 "/>
<path fill-rule="nonzero" fill="currentColor"  d="M 77.597656 68.324219 C 80.160156 66.074219 83.570312 64.949219 87.835938 64.949219 C 91.945312 64.949219 95.296875 66.074219 97.898438 68.324219 C 100.496094 70.574219 101.949219 73.597656 102.257812 77.394531 L 72.832031 77.394531 C 73.449219 73.597656 75.039062 70.574219 77.597656 68.324219 M 98.304688 99.554688 C 96.210938 101.457031 92.992188 102.40625 88.648438 102.40625 C 84.230469 102.40625 80.507812 101.050781 77.484375 98.335938 C 74.460938 95.621094 72.867188 92.015625 72.714844 87.515625 L 115.867188 87.515625 L 115.867188 82.746094 C 115.867188 76.855469 114.703125 71.695312 112.378906 67.277344 C 110.050781 62.855469 106.796875 59.425781 102.609375 56.980469 C 98.421875 54.539062 93.535156 53.320312 87.953125 53.320312 C 82.289062 53.320312 77.289062 54.539062 72.945312 56.980469 C 68.601562 59.425781 65.230469 62.855469 62.828125 67.277344 C 60.421875 71.695312 59.222656 76.929688 59.222656 82.980469 L 59.222656 84.375 C 59.222656 90.347656 60.441406 95.5625 62.886719 100.019531 C 65.328125 104.480469 68.738281 107.929688 73.121094 110.371094 C 77.5 112.816406 82.5625 114.035156 88.300781 114.035156 C 93.496094 114.035156 97.796875 113.203125 101.210938 111.535156 C 104.625 109.871094 107.355469 107.855469 109.414062 105.488281 C 111.464844 103.121094 113.035156 100.890625 114.125 98.800781 L 103.074219 93.097656 C 101.984375 95.503906 100.398438 97.65625 98.304688 99.554688 "/>
<path fill-rule="nonzero" fill="currentColor"  d="M 199.664062 56.289062 C 196.789062 54.773438 193.488281 54.015625 189.757812 54.015625 C 185.097656 54.015625 181.5 54.910156 178.976562 56.695312 C 176.449219 58.484375 174.527344 60.699219 173.207031 63.339844 L 171.34375 63.339844 C 170.019531 60.621094 168.058594 58.386719 165.457031 56.636719 C 162.851562 54.890625 159.414062 54.015625 155.140625 54.015625 C 151.023438 54.015625 147.761719 54.792969 145.351562 56.347656 C 142.941406 57.902344 141.195312 59.6875 140.105469 61.707031 L 138.242188 61.707031 L 138.242188 54.949219 L 126.46875 54.949219 L 126.46875 112.40625 L 138.476562 112.40625 L 138.476562 78.140625 C 138.476562 73.636719 139.601562 70.175781 141.855469 67.769531 C 144.109375 65.359375 147.101562 64.15625 150.828125 64.15625 C 154.324219 64.15625 157.023438 65.109375 158.929688 67.011719 C 160.832031 68.917969 161.785156 71.617188 161.785156 75.109375 L 161.785156 112.40625 L 173.789062 112.40625 L 173.789062 78.140625 C 173.789062 73.636719 174.917969 70.175781 177.171875 67.769531 C 179.421875 65.359375 182.414062 64.15625 186.144531 64.15625 C 189.640625 64.15625 192.339844 65.109375 194.246094 67.011719 C 196.148438 68.917969 197.101562 71.617188 197.101562 75.109375 L 197.101562 112.40625 L 209.105469 112.40625 L 209.105469 74.179688 C 209.105469 69.75 208.25 66.039062 206.542969 63.046875 C 204.832031 60.058594 202.539062 57.804688 199.664062 56.289062 "/>
<path fill-rule="nonzero" fill="currentColor"  d="M 229.035156 31.800781 C 227 31.800781 225.296875 32.464844 223.925781 33.796875 C 222.554688 35.128906 221.867188 36.851562 221.867188 38.96875 C 221.867188 41.003906 222.554688 42.6875 223.925781 44.019531 C 225.296875 45.351562 227 46.015625 229.035156 46.015625 C 231.074219 46.015625 232.757812 45.351562 234.089844 44.019531 C 235.421875 42.6875 236.085938 41.003906 236.085938 38.96875 C 236.085938 36.851562 235.421875 35.128906 234.089844 33.796875 C 232.757812 32.464844 231.074219 31.800781 229.035156 31.800781 "/>
<path fill-rule="nonzero" fill="currentColor"  d="M 224.335938 112.40625 L 233.621094 112.40625 L 233.621094 54.949219 L 224.335938 54.949219 Z M 224.335938 112.40625 "/>
<g clip-path="url(#clip-2)">
<path fill-rule="nonzero" fill="currentColor"  d="M 297.316406 84.152344 C 297.316406 91.246094 295.34375 96.941406 291.402344 101.234375 C 287.460938 105.53125 282.101562 107.679688 275.324219 107.679688 C 268.621094 107.679688 263.28125 105.53125 259.304688 101.234375 C 255.320312 96.941406 253.332031 91.246094 253.332031 84.152344 L 253.332031 83.203125 C 253.332031 76.109375 255.320312 70.417969 259.304688 66.121094 C 263.28125 61.824219 268.621094 59.675781 275.324219 59.675781 C 282.101562 59.675781 287.460938 61.824219 291.402344 66.121094 C 295.34375 70.417969 297.316406 76.109375 297.316406 83.203125 Z M 290.632812 57.015625 C 286.257812 54.53125 281.15625 53.292969 275.324219 53.292969 C 269.488281 53.292969 264.386719 54.53125 260.011719 57.015625 C 255.636719 59.5 252.25 62.96875 249.84375 67.421875 C 247.4375 71.875 246.238281 77.058594 246.238281 82.96875 L 246.238281 84.386719 C 246.238281 90.300781 247.4375 95.480469 249.84375 99.933594 C 252.25 104.390625 255.636719 107.855469 260.011719 110.339844 C 264.386719 112.820312 269.488281 114.0625 275.324219 114.0625 C 281.15625 114.0625 286.257812 112.820312 290.632812 110.339844 C 295.007812 107.855469 298.398438 104.390625 300.800781 99.933594 C 303.207031 95.480469 304.40625 90.300781 304.40625 84.386719 L 304.40625 82.96875 C 304.40625 77.058594 303.207031 71.875 300.800781 67.421875 C 298.398438 62.96875 295.007812 59.5 290.632812 57.015625 "/>
</g>
<path fill-rule="nonzero" fill="currentColor"  d="M 0.351562 15.996094 L 6.671875 15.996094 L 6.671875 30.265625 C 6.671875 32 7.191406 33.386719 8.230469 34.421875 C 9.265625 35.457031 10.617188 35.976562 12.28125 35.976562 L 19.417969 35.976562 L 19.417969 30.675781 L 14.523438 30.675781 C 13.570312 30.675781 13.097656 30.164062 13.097656 29.144531 L 13.097656 15.996094 L 20.027344 15.996094 L 20.027344 10.695312 L 13.097656 10.695312 L 13.097656 2.84375 L 6.671875 2.84375 L 6.671875 10.695312 L 0.351562 10.695312 Z M 0.351562 15.996094 "/>
<g clip-path="url(#clip-3)">
<path fill-rule="nonzero" fill="currentColor"  d="M 25.148438 0.078125 L 25.148438 35.976562 L 30.429688 35.976562 L 30.429688 23.207031 C 30.429688 20.472656 31.089844 18.386719 32.40625 16.949219 C 33.71875 15.515625 35.472656 14.796875 37.664062 14.796875 C 39.574219 14.796875 41.082031 15.320312 42.175781 16.359375 C 43.269531 17.40625 43.816406 19.019531 43.816406 21.207031 L 43.816406 35.976562 L 49.097656 35.976562 L 49.097656 20.796875 C 49.097656 18.609375 48.671875 16.738281 47.816406 15.179688 C 46.960938 13.625 45.789062 12.421875 44.304688 11.566406 C 42.816406 10.710938 41.113281 10.285156 39.199219 10.285156 C 37.59375 10.285156 36.269531 10.480469 35.226562 10.875 C 34.183594 11.265625 33.34375 11.769531 32.714844 12.386719 C 32.078125 13 31.59375 13.632812 31.25 14.285156 L 30.429688 14.285156 L 30.429688 0.078125 Z M 25.148438 0.078125 "/>
</g>
<path fill-rule="nonzero" fill="currentColor"  d="M 58.265625 21.304688 C 58.648438 18.566406 59.671875 16.460938 61.335938 14.984375 C 63 13.511719 65.097656 12.773438 67.632812 12.773438 C 70.199219 12.773438 72.296875 13.511719 73.925781 14.984375 C 75.554688 16.460938 76.4375 18.566406 76.578125 21.304688 Z M 79.753906 22.347656 C 79.753906 19.78125 79.230469 17.570312 78.191406 15.714844 C 77.152344 13.859375 75.71875 12.4375 73.898438 11.449219 C 72.078125 10.460938 69.988281 9.964844 67.632812 9.964844 C 65.203125 9.964844 63.042969 10.511719 61.15625 11.605469 C 59.261719 12.699219 57.78125 14.222656 56.707031 16.179688 C 55.632812 18.140625 55.09375 20.421875 55.09375 23.023438 L 55.09375 23.648438 C 55.09375 26.214844 55.632812 28.484375 56.707031 30.460938 C 57.78125 32.4375 59.28125 33.972656 61.207031 35.066406 C 63.132812 36.160156 65.394531 36.703125 67.996094 36.703125 C 70.25 36.703125 72.105469 36.347656 73.5625 35.640625 C 75.019531 34.929688 76.207031 34.027344 77.125 32.933594 C 78.042969 31.839844 78.765625 30.722656 79.285156 29.578125 L 76.472656 28.328125 C 75.78125 29.890625 74.785156 31.210938 73.484375 32.285156 C 72.183594 33.359375 70.351562 33.894531 67.996094 33.894531 C 65.21875 33.894531 62.921875 33.039062 61.101562 31.320312 C 59.28125 29.605469 58.320312 27.167969 58.214844 24.011719 L 79.753906 24.011719 Z M 79.753906 22.347656 "/>
</svg>
